<?xml version="1.0" encoding="UTF-8"?><svg xmlns="http://www.w3.org/2000/svg" viewBox="0 0 518.1 448.23"><defs><style>.cls-1{letter-spacing:-.02em;}.cls-2{fill:#009245;}.cls-3,.cls-4{fill:#fff;}.cls-4{font-family:ChakraPetch-SemiBold, 'Chakra Petch';font-size:72px;font-weight:600;}</style></defs><g id="Layer_2"><polygon class="cls-3" points="115.12 274.97 378.12 276.3 403.12 287.31 115.12 287.93 115.12 274.97"/><polygon class="cls-3" points="115.12 233.97 378.12 235.3 403.12 246.31 115.12 246.93 115.12 233.97"/><polygon class="cls-3" points="115.12 190.15 378.12 191.3 403.12 202.49 115.12 203.11 115.12 190.15"/><rect class="cls-3" x="115.12" width="12.96" height="201.6"/><polygon class="cls-3" points="390.12 .8 403.08 .8 403.08 108.8 390.12 78.04 390.12 .8"/><rect class="cls-3" x="252.64" y="-137.2" width="12.96" height="288" transform="translate(252.32 265.92) rotate(-90)"/></g><g id="Layer_4"><g><path class="cls-2" d="m146.98,76.88c0-4.46.87-6.92,2.36-6.92s2.36,2.46,2.36,6.92-.87,7.01-2.36,7.01-2.36-2.59-2.36-7.01Zm4.25,0c0-4.07-.76-6.11-1.89-6.11s-1.89,2.04-1.89,6.11.76,6.2,1.89,6.2,1.89-2.12,1.89-6.2Zm-2.47-.19c0-.81.29-1.26.59-1.26s.59.45.59,1.26-.29,1.27-.59,1.27-.59-.45-.59-1.27Z"/><path class="cls-2" d="m153.73,82.81h2.06v-11.11h-1.55v-.64c.74-.18,1.27-.48,1.66-.85h.36v12.6h1.93v.82h-4.46v-.82Z"/><path class="cls-2" d="m159.89,76.88c0-4.46.87-6.92,2.36-6.92s2.36,2.46,2.36,6.92-.87,7.01-2.36,7.01-2.36-2.59-2.36-7.01Zm4.25,0c0-4.07-.76-6.11-1.89-6.11s-1.89,2.04-1.89,6.11.76,6.2,1.89,6.2,1.89-2.12,1.89-6.2Zm-2.47-.19c0-.81.29-1.26.59-1.26s.59.45.59,1.26-.29,1.27-.59,1.27-.59-.45-.59-1.27Z"/><path class="cls-2" d="m166.34,76.88c0-4.46.87-6.92,2.36-6.92s2.36,2.46,2.36,6.92-.87,7.01-2.36,7.01-2.36-2.59-2.36-7.01Zm4.25,0c0-4.07-.76-6.11-1.89-6.11s-1.89,2.04-1.89,6.11.76,6.2,1.89,6.2,1.89-2.12,1.89-6.2Zm-2.47-.19c0-.81.29-1.26.59-1.26s.59.45.59,1.26-.29,1.27-.59,1.27-.59-.45-.59-1.27Z"/><path class="cls-2" d="m172.79,76.88c0-4.46.87-6.92,2.36-6.92s2.36,2.46,2.36,6.92-.87,7.01-2.36,7.01-2.36-2.59-2.36-7.01Zm4.25,0c0-4.07-.76-6.11-1.89-6.11s-1.89,2.04-1.89,6.11.76,6.2,1.89,6.2,1.89-2.12,1.89-6.2Zm-2.47-.19c0-.81.29-1.26.59-1.26s.59.45.59,1.26-.29,1.27-.59,1.27-.59-.45-.59-1.27Z"/><path class="cls-2" d="m179.24,76.88c0-4.46.87-6.92,2.36-6.92s2.36,2.46,2.36,6.92-.87,7.01-2.36,7.01-2.36-2.59-2.36-7.01Zm4.25,0c0-4.07-.76-6.11-1.89-6.11s-1.89,2.04-1.89,6.11.76,6.2,1.89,6.2,1.89-2.12,1.89-6.2Zm-2.47-.19c0-.81.29-1.26.59-1.26s.59.45.59,1.26-.29,1.27-.59,1.27-.59-.45-.59-1.27Z"/><path class="cls-2" d="m185.98,82.81h2.06v-11.11h-1.55v-.64c.74-.18,1.27-.48,1.66-.85h.36v12.6h1.93v.82h-4.46v-.82Z"/><path class="cls-2" d="m192.43,82.81h2.06v-11.11h-1.55v-.64c.74-.18,1.27-.48,1.66-.85h.36v12.6h1.93v.82h-4.46v-.82Z"/><path class="cls-2" d="m205.04,76.88c0-4.46.87-6.92,2.36-6.92s2.36,2.46,2.36,6.92-.87,7.01-2.36,7.01-2.36-2.59-2.36-7.01Zm4.25,0c0-4.07-.76-6.11-1.89-6.11s-1.89,2.04-1.89,6.11.76,6.2,1.89,6.2,1.89-2.12,1.89-6.2Zm-2.47-.19c0-.81.29-1.26.59-1.26s.59.45.59,1.26-.29,1.27-.59,1.27-.59-.45-.59-1.27Z"/><path class="cls-2" d="m211.79,82.81h2.06v-11.11h-1.55v-.64c.74-.18,1.27-.48,1.66-.85h.36v12.6h1.93v.82h-4.46v-.82Z"/><path class="cls-2" d="m217.94,76.88c0-4.46.87-6.92,2.36-6.92s2.36,2.46,2.36,6.92-.87,7.01-2.36,7.01-2.36-2.59-2.36-7.01Zm4.25,0c0-4.07-.76-6.11-1.89-6.11s-1.89,2.04-1.89,6.11.76,6.2,1.89,6.2,1.89-2.12,1.89-6.2Zm-2.47-.19c0-.81.29-1.26.59-1.26s.59.45.59,1.26-.29,1.27-.59,1.27-.59-.45-.59-1.27Z"/><path class="cls-2" d="m224.69,82.81h2.06v-11.11h-1.55v-.64c.74-.18,1.27-.48,1.66-.85h.36v12.6h1.93v.82h-4.46v-.82Z"/><path class="cls-2" d="m231.14,82.81h2.06v-11.11h-1.55v-.64c.74-.18,1.27-.48,1.66-.85h.36v12.6h1.93v.82h-4.46v-.82Z"/><path class="cls-2" d="m237.29,76.88c0-4.46.87-6.92,2.36-6.92s2.36,2.46,2.36,6.92-.87,7.01-2.36,7.01-2.36-2.59-2.36-7.01Zm4.25,0c0-4.07-.76-6.11-1.89-6.11s-1.89,2.04-1.89,6.11.76,6.2,1.89,6.2,1.89-2.12,1.89-6.2Zm-2.47-.19c0-.81.29-1.26.59-1.26s.59.45.59,1.26-.29,1.27-.59,1.27-.59-.45-.59-1.27Z"/><path class="cls-2" d="m243.74,76.88c0-4.46.87-6.92,2.36-6.92s2.36,2.46,2.36,6.92-.87,7.01-2.36,7.01-2.36-2.59-2.36-7.01Zm4.25,0c0-4.07-.76-6.11-1.89-6.11s-1.89,2.04-1.89,6.11.76,6.2,1.89,6.2,1.89-2.12,1.89-6.2Zm-2.47-.19c0-.81.29-1.26.59-1.26s.59.45.59,1.26-.29,1.27-.59,1.27-.59-.45-.59-1.27Z"/><path class="cls-2" d="m250.49,82.81h2.06v-11.11h-1.55v-.64c.74-.18,1.27-.48,1.66-.85h.36v12.6h1.93v.82h-4.46v-.82Z"/><path class="cls-2" d="m263.1,76.88c0-4.46.87-6.92,2.36-6.92s2.36,2.46,2.36,6.92-.87,7.01-2.36,7.01-2.36-2.59-2.36-7.01Zm4.25,0c0-4.07-.76-6.11-1.89-6.11s-1.89,2.04-1.89,6.11.76,6.2,1.89,6.2,1.89-2.12,1.89-6.2Zm-2.47-.19c0-.81.29-1.26.59-1.26s.59.45.59,1.26-.29,1.27-.59,1.27-.59-.45-.59-1.27Z"/><path class="cls-2" d="m269.84,82.81h2.06v-11.11h-1.55v-.64c.74-.18,1.27-.48,1.66-.85h.36v12.6h1.93v.82h-4.46v-.82Z"/><path class="cls-2" d="m276,76.88c0-4.46.87-6.92,2.36-6.92s2.36,2.46,2.36,6.92-.87,7.01-2.36,7.01-2.36-2.59-2.36-7.01Zm4.25,0c0-4.07-.76-6.11-1.89-6.11s-1.89,2.04-1.89,6.11.76,6.2,1.89,6.2,1.89-2.12,1.89-6.2Zm-2.47-.19c0-.81.29-1.26.59-1.26s.59.45.59,1.26-.29,1.27-.59,1.27-.59-.45-.59-1.27Z"/><path class="cls-2" d="m282.45,76.88c0-4.46.87-6.92,2.36-6.92s2.36,2.46,2.36,6.92-.87,7.01-2.36,7.01-2.36-2.59-2.36-7.01Zm4.25,0c0-4.07-.76-6.11-1.89-6.11s-1.89,2.04-1.89,6.11.76,6.2,1.89,6.2,1.89-2.12,1.89-6.2Zm-2.47-.19c0-.81.29-1.26.59-1.26s.59.45.59,1.26-.29,1.27-.59,1.27-.59-.45-.59-1.27Z"/><path class="cls-2" d="m288.9,76.88c0-4.46.87-6.92,2.36-6.92s2.36,2.46,2.36,6.92-.87,7.01-2.36,7.01-2.36-2.59-2.36-7.01Zm4.25,0c0-4.07-.76-6.11-1.89-6.11s-1.88,2.04-1.88,6.11.76,6.2,1.88,6.2,1.89-2.12,1.89-6.2Zm-2.47-.19c0-.81.29-1.26.59-1.26s.59.45.59,1.26-.29,1.27-.59,1.27-.59-.45-.59-1.27Z"/><path class="cls-2" d="m295.35,76.88c0-4.46.87-6.92,2.36-6.92s2.36,2.46,2.36,6.92-.87,7.01-2.36,7.01-2.36-2.59-2.36-7.01Zm4.25,0c0-4.07-.76-6.11-1.89-6.11s-1.89,2.04-1.89,6.11.76,6.2,1.89,6.2,1.89-2.12,1.89-6.2Zm-2.47-.19c0-.81.29-1.26.59-1.26s.59.45.59,1.26-.29,1.27-.59,1.27-.59-.45-.59-1.27Z"/><path class="cls-2" d="m302.09,82.81h2.06v-11.11h-1.55v-.64c.74-.18,1.27-.48,1.66-.85h.36v12.6h1.93v.82h-4.46v-.82Z"/><path class="cls-2" d="m308.25,76.88c0-4.46.87-6.92,2.36-6.92s2.36,2.46,2.36,6.92-.87,7.01-2.36,7.01-2.36-2.59-2.36-7.01Zm4.25,0c0-4.07-.76-6.11-1.89-6.11s-1.88,2.04-1.88,6.11.76,6.2,1.88,6.2,1.89-2.12,1.89-6.2Zm-2.47-.19c0-.81.29-1.26.59-1.26s.59.45.59,1.26-.29,1.27-.59,1.27-.59-.45-.59-1.27Z"/><path class="cls-2" d="m321.15,76.88c0-4.46.87-6.92,2.36-6.92s2.36,2.46,2.36,6.92-.87,7.01-2.36,7.01-2.36-2.59-2.36-7.01Zm4.25,0c0-4.07-.76-6.11-1.89-6.11s-1.89,2.04-1.89,6.11.76,6.2,1.89,6.2,1.89-2.12,1.89-6.2Zm-2.47-.19c0-.81.29-1.26.59-1.26s.59.45.59,1.26-.29,1.27-.59,1.27-.59-.45-.59-1.27Z"/><path class="cls-2" d="m327.9,82.81h2.06v-11.11h-1.55v-.64c.74-.18,1.27-.48,1.66-.85h.36v12.6h1.93v.82h-4.46v-.82Z"/><path class="cls-2" d="m334.05,76.88c0-4.46.87-6.92,2.36-6.92s2.36,2.46,2.36,6.92-.87,7.01-2.36,7.01-2.36-2.59-2.36-7.01Zm4.25,0c0-4.07-.76-6.11-1.89-6.11s-1.88,2.04-1.88,6.11.76,6.2,1.88,6.2,1.89-2.12,1.89-6.2Zm-2.47-.19c0-.81.29-1.26.59-1.26s.59.45.59,1.26-.29,1.27-.59,1.27-.59-.45-.59-1.27Z"/><path class="cls-2" d="m340.5,76.88c0-4.46.87-6.92,2.36-6.92s2.36,2.46,2.36,6.92-.87,7.01-2.36,7.01-2.36-2.59-2.36-7.01Zm4.25,0c0-4.07-.76-6.11-1.89-6.11s-1.89,2.04-1.89,6.11.76,6.2,1.89,6.2,1.89-2.12,1.89-6.2Zm-2.47-.19c0-.81.29-1.26.59-1.26s.59.45.59,1.26-.29,1.27-.59,1.27-.59-.45-.59-1.27Z"/><path class="cls-2" d="m346.95,76.88c0-4.46.87-6.92,2.36-6.92s2.36,2.46,2.36,6.92-.87,7.01-2.36,7.01-2.36-2.59-2.36-7.01Zm4.25,0c0-4.07-.76-6.11-1.89-6.11s-1.89,2.04-1.89,6.11.76,6.2,1.89,6.2,1.89-2.12,1.89-6.2Zm-2.47-.19c0-.81.29-1.26.59-1.26s.59.45.59,1.26-.29,1.27-.59,1.27-.59-.45-.59-1.27Z"/><path class="cls-2" d="m353.7,82.81h2.06v-11.11h-1.55v-.64c.74-.18,1.27-.48,1.66-.85h.36v12.6h1.93v.82h-4.46v-.82Z"/><path class="cls-2" d="m359.85,76.88c0-4.46.87-6.92,2.36-6.92s2.36,2.46,2.36,6.92-.87,7.01-2.36,7.01-2.36-2.59-2.36-7.01Zm4.25,0c0-4.07-.76-6.11-1.89-6.11s-1.89,2.04-1.89,6.11.76,6.2,1.89,6.2,1.89-2.12,1.89-6.2Zm-2.47-.19c0-.81.29-1.26.59-1.26s.59.45.59,1.26-.29,1.27-.59,1.27-.59-.45-.59-1.27Z"/><path class="cls-2" d="m366.6,82.81h2.06v-11.11h-1.55v-.64c.74-.18,1.27-.48,1.66-.85h.36v12.6h1.93v.82h-4.46v-.82Z"/><path class="cls-2" d="m146.98,102.08c0-4.46.87-6.92,2.36-6.92s2.36,2.46,2.36,6.92-.87,7.01-2.36,7.01-2.36-2.59-2.36-7.01Zm4.25,0c0-4.07-.76-6.11-1.89-6.11s-1.89,2.04-1.89,6.11.76,6.2,1.89,6.2,1.89-2.12,1.89-6.2Zm-2.47-.19c0-.81.29-1.26.59-1.26s.59.45.59,1.26-.29,1.27-.59,1.27-.59-.45-.59-1.27Z"/><path class="cls-2" d="m153.73,108.01h2.06v-11.11h-1.55v-.64c.74-.18,1.27-.48,1.66-.85h.36v12.6h1.93v.82h-4.46v-.82Z"/><path class="cls-2" d="m159.89,102.08c0-4.46.87-6.92,2.36-6.92s2.36,2.46,2.36,6.92-.87,7.01-2.36,7.01-2.36-2.59-2.36-7.01Zm4.25,0c0-4.07-.76-6.11-1.89-6.11s-1.89,2.04-1.89,6.11.76,6.2,1.89,6.2,1.89-2.12,1.89-6.2Zm-2.47-.19c0-.81.29-1.26.59-1.26s.59.45.59,1.26-.29,1.27-.59,1.27-.59-.45-.59-1.27Z"/><path class="cls-2" d="m166.63,108.01h2.06v-11.11h-1.55v-.64c.74-.18,1.27-.48,1.66-.85h.36v12.6h1.93v.82h-4.46v-.82Z"/><path class="cls-2" d="m172.79,102.08c0-4.46.87-6.92,2.36-6.92s2.36,2.46,2.36,6.92-.87,7.01-2.36,7.01-2.36-2.59-2.36-7.01Zm4.25,0c0-4.07-.76-6.11-1.89-6.11s-1.89,2.04-1.89,6.11.76,6.2,1.89,6.2,1.89-2.12,1.89-6.2Zm-2.47-.19c0-.81.29-1.26.59-1.26s.59.45.59,1.26-.29,1.27-.59,1.27-.59-.45-.59-1.27Z"/><path class="cls-2" d="m179.24,102.08c0-4.46.87-6.92,2.36-6.92s2.36,2.46,2.36,6.92-.87,7.01-2.36,7.01-2.36-2.59-2.36-7.01Zm4.25,0c0-4.07-.76-6.11-1.89-6.11s-1.89,2.04-1.89,6.11.76,6.2,1.89,6.2,1.89-2.12,1.89-6.2Zm-2.47-.19c0-.81.29-1.26.59-1.26s.59.45.59,1.26-.29,1.27-.59,1.27-.59-.45-.59-1.27Z"/><path class="cls-2" d="m185.98,108.01h2.06v-11.11h-1.55v-.64c.74-.18,1.27-.48,1.66-.85h.36v12.6h1.93v.82h-4.46v-.82Z"/><path class="cls-2" d="m192.14,102.08c0-4.46.87-6.92,2.36-6.92s2.36,2.46,2.36,6.92-.87,7.01-2.36,7.01-2.36-2.59-2.36-7.01Zm4.25,0c0-4.07-.76-6.11-1.89-6.11s-1.89,2.04-1.89,6.11.76,6.2,1.89,6.2,1.89-2.12,1.89-6.2Zm-2.47-.19c0-.81.29-1.26.59-1.26s.59.45.59,1.26-.29,1.27-.59,1.27-.59-.45-.59-1.27Z"/><path class="cls-2" d="m205.04,102.08c0-4.46.87-6.92,2.36-6.92s2.36,2.46,2.36,6.92-.87,7.01-2.36,7.01-2.36-2.59-2.36-7.01Zm4.25,0c0-4.07-.76-6.11-1.89-6.11s-1.89,2.04-1.89,6.11.76,6.2,1.89,6.2,1.89-2.12,1.89-6.2Zm-2.47-.19c0-.81.29-1.26.59-1.26s.59.45.59,1.26-.29,1.27-.59,1.27-.59-.45-.59-1.27Z"/><path class="cls-2" d="m211.49,102.08c0-4.46.87-6.92,2.36-6.92s2.36,2.46,2.36,6.92-.87,7.01-2.36,7.01-2.36-2.59-2.36-7.01Zm4.25,0c0-4.07-.76-6.11-1.89-6.11s-1.89,2.04-1.89,6.11.76,6.2,1.89,6.2,1.89-2.12,1.89-6.2Zm-2.47-.19c0-.81.29-1.26.59-1.26s.59.45.59,1.26-.29,1.27-.59,1.27-.59-.45-.59-1.27Z"/><path class="cls-2" d="m218.24,108.01h2.06v-11.11h-1.55v-.64c.74-.18,1.27-.48,1.66-.85h.36v12.6h1.93v.82h-4.46v-.82Z"/><path class="cls-2" d="m224.39,102.08c0-4.46.87-6.92,2.36-6.92s2.36,2.46,2.36,6.92-.87,7.01-2.36,7.01-2.36-2.59-2.36-7.01Zm4.25,0c0-4.07-.76-6.11-1.89-6.11s-1.89,2.04-1.89,6.11.76,6.2,1.89,6.2,1.89-2.12,1.89-6.2Zm-2.47-.19c0-.81.29-1.26.59-1.26s.59.45.59,1.26-.29,1.27-.59,1.27-.59-.45-.59-1.27Z"/><path class="cls-2" d="m230.84,102.08c0-4.46.87-6.92,2.36-6.92s2.36,2.46,2.36,6.92-.87,7.01-2.36,7.01-2.36-2.59-2.36-7.01Zm4.25,0c0-4.07-.76-6.11-1.89-6.11s-1.89,2.04-1.89,6.11.76,6.2,1.89,6.2,1.89-2.12,1.89-6.2Zm-2.47-.19c0-.81.29-1.26.59-1.26s.59.45.59,1.26-.29,1.27-.59,1.27-.59-.45-.59-1.27Z"/><path class="cls-2" d="m237.29,102.08c0-4.46.87-6.92,2.36-6.92s2.36,2.46,2.36,6.92-.87,7.01-2.36,7.01-2.36-2.59-2.36-7.01Zm4.25,0c0-4.07-.76-6.11-1.89-6.11s-1.89,2.04-1.89,6.11.76,6.2,1.89,6.2,1.89-2.12,1.89-6.2Zm-2.47-.19c0-.81.29-1.26.59-1.26s.59.45.59,1.26-.29,1.27-.59,1.27-.59-.45-.59-1.27Z"/><path class="cls-2" d="m243.74,102.08c0-4.46.87-6.92,2.36-6.92s2.36,2.46,2.36,6.92-.87,7.01-2.36,7.01-2.36-2.59-2.36-7.01Zm4.25,0c0-4.07-.76-6.11-1.89-6.11s-1.89,2.04-1.89,6.11.76,6.2,1.89,6.2,1.89-2.12,1.89-6.2Zm-2.47-.19c0-.81.29-1.26.59-1.26s.59.45.59,1.26-.29,1.27-.59,1.27-.59-.45-.59-1.27Z"/><path class="cls-2" d="m250.19,102.08c0-4.46.87-6.92,2.36-6.92s2.36,2.46,2.36,6.92-.87,7.01-2.36,7.01-2.36-2.59-2.36-7.01Zm4.25,0c0-4.07-.76-6.11-1.89-6.11s-1.89,2.04-1.89,6.11.76,6.2,1.89,6.2,1.89-2.12,1.89-6.2Zm-2.47-.19c0-.81.29-1.26.59-1.26s.59.45.59,1.26-.29,1.27-.59,1.27-.59-.45-.59-1.27Z"/><path class="cls-2" d="m263.1,102.08c0-4.46.87-6.92,2.36-6.92s2.36,2.46,2.36,6.92-.87,7.01-2.36,7.01-2.36-2.59-2.36-7.01Zm4.25,0c0-4.07-.76-6.11-1.89-6.11s-1.89,2.04-1.89,6.11.76,6.2,1.89,6.2,1.89-2.12,1.89-6.2Zm-2.47-.19c0-.81.29-1.26.59-1.26s.59.45.59,1.26-.29,1.27-.59,1.27-.59-.45-.59-1.27Z"/><path class="cls-2" d="m269.84,108.01h2.06v-11.11h-1.55v-.64c.74-.18,1.27-.48,1.66-.85h.36v12.6h1.93v.82h-4.46v-.82Z"/><path class="cls-2" d="m276,102.08c0-4.46.87-6.92,2.36-6.92s2.36,2.46,2.36,6.92-.87,7.01-2.36,7.01-2.36-2.59-2.36-7.01Zm4.25,0c0-4.07-.76-6.11-1.89-6.11s-1.89,2.04-1.89,6.11.76,6.2,1.89,6.2,1.89-2.12,1.89-6.2Zm-2.47-.19c0-.81.29-1.26.59-1.26s.59.45.59,1.26-.29,1.27-.59,1.27-.59-.45-.59-1.27Z"/><path class="cls-2" d="m282.45,102.08c0-4.46.87-6.92,2.36-6.92s2.36,2.46,2.36,6.92-.87,7.01-2.36,7.01-2.36-2.59-2.36-7.01Zm4.25,0c0-4.07-.76-6.11-1.89-6.11s-1.89,2.04-1.89,6.11.76,6.2,1.89,6.2,1.89-2.12,1.89-6.2Zm-2.47-.19c0-.81.29-1.26.59-1.26s.59.45.59,1.26-.29,1.27-.59,1.27-.59-.45-.59-1.27Z"/><path class="cls-2" d="m289.19,108.01h2.06v-11.11h-1.55v-.64c.74-.18,1.27-.48,1.66-.85h.36v12.6h1.93v.82h-4.46v-.82Z"/><path class="cls-2" d="m295.64,108.01h2.06v-11.11h-1.55v-.64c.74-.18,1.27-.48,1.66-.85h.36v12.6h1.93v.82h-4.46v-.82Z"/><path class="cls-2" d="m301.8,102.08c0-4.46.87-6.92,2.36-6.92s2.36,2.46,2.36,6.92-.87,7.01-2.36,7.01-2.36-2.59-2.36-7.01Zm4.25,0c0-4.07-.76-6.11-1.89-6.11s-1.89,2.04-1.89,6.11.76,6.2,1.89,6.2,1.89-2.12,1.89-6.2Zm-2.47-.19c0-.81.29-1.26.59-1.26s.59.45.59,1.26-.29,1.27-.59,1.27-.59-.45-.59-1.27Z"/><path class="cls-2" d="m308.54,108.01h2.06v-11.11h-1.55v-.64c.74-.18,1.27-.48,1.66-.85h.36v12.6h1.93v.82h-4.46v-.82Z"/><path class="cls-2" d="m321.15,102.08c0-4.46.87-6.92,2.36-6.92s2.36,2.46,2.36,6.92-.87,7.01-2.36,7.01-2.36-2.59-2.36-7.01Zm4.25,0c0-4.07-.76-6.11-1.89-6.11s-1.89,2.04-1.89,6.11.76,6.2,1.89,6.2,1.89-2.12,1.89-6.2Zm-2.47-.19c0-.81.29-1.26.59-1.26s.59.45.59,1.26-.29,1.27-.59,1.27-.59-.45-.59-1.27Z"/><path class="cls-2" d="m327.9,108.01h2.06v-11.11h-1.55v-.64c.74-.18,1.27-.48,1.66-.85h.36v12.6h1.93v.82h-4.46v-.82Z"/><path class="cls-2" d="m334.05,102.08c0-4.46.87-6.92,2.36-6.92s2.36,2.46,2.36,6.92-.87,7.01-2.36,7.01-2.36-2.59-2.36-7.01Zm4.25,0c0-4.07-.76-6.11-1.89-6.11s-1.88,2.04-1.88,6.11.76,6.2,1.88,6.2,1.89-2.12,1.89-6.2Zm-2.47-.19c0-.81.29-1.26.59-1.26s.59.45.59,1.26-.29,1.27-.59,1.27-.59-.45-.59-1.27Z"/><path class="cls-2" d="m340.8,108.01h2.06v-11.11h-1.55v-.64c.74-.18,1.27-.48,1.66-.85h.36v12.6h1.93v.82h-4.46v-.82Z"/><path class="cls-2" d="m346.95,102.08c0-4.46.87-6.92,2.36-6.92s2.36,2.46,2.36,6.92-.87,7.01-2.36,7.01-2.36-2.59-2.36-7.01Zm4.25,0c0-4.07-.76-6.11-1.89-6.11s-1.89,2.04-1.89,6.11.76,6.2,1.89,6.2,1.89-2.12,1.89-6.2Zm-2.47-.19c0-.81.29-1.26.59-1.26s.59.45.59,1.26-.29,1.27-.59,1.27-.59-.45-.59-1.27Z"/><path class="cls-2" d="m353.7,108.01h2.06v-11.11h-1.55v-.64c.74-.18,1.27-.48,1.66-.85h.36v12.6h1.93v.82h-4.46v-.82Z"/><path class="cls-2" d="m359.85,102.08c0-4.46.87-6.92,2.36-6.92s2.36,2.46,2.36,6.92-.87,7.01-2.36,7.01-2.36-2.59-2.36-7.01Zm4.25,0c0-4.07-.76-6.11-1.89-6.11s-1.89,2.04-1.89,6.11.76,6.2,1.89,6.2,1.89-2.12,1.89-6.2Zm-2.47-.19c0-.81.29-1.26.59-1.26s.59.45.59,1.26-.29,1.27-.59,1.27-.59-.45-.59-1.27Z"/><path class="cls-2" d="m366.6,108.01h2.06v-11.11h-1.55v-.64c.74-.18,1.27-.48,1.66-.85h.36v12.6h1.93v.82h-4.46v-.82Z"/><path class="cls-2" d="m146.98,127.28c0-4.46.87-6.92,2.36-6.92s2.36,2.46,2.36,6.92-.87,7.01-2.36,7.01-2.36-2.59-2.36-7.01Zm4.25,0c0-4.07-.76-6.11-1.89-6.11s-1.89,2.04-1.89,6.11.76,6.2,1.89,6.2,1.89-2.12,1.89-6.2Zm-2.47-.19c0-.81.29-1.26.59-1.26s.59.45.59,1.26-.29,1.27-.59,1.27-.59-.45-.59-1.27Z"/><path class="cls-2" d="m153.73,133.21h2.06v-11.11h-1.55v-.64c.74-.18,1.27-.48,1.66-.85h.36v12.6h1.93v.82h-4.46v-.82Z"/><path class="cls-2" d="m159.89,127.28c0-4.46.87-6.92,2.36-6.92s2.36,2.46,2.36,6.92-.87,7.01-2.36,7.01-2.36-2.59-2.36-7.01Zm4.25,0c0-4.07-.76-6.11-1.89-6.11s-1.89,2.04-1.89,6.11.76,6.2,1.89,6.2,1.89-2.12,1.89-6.2Zm-2.47-.19c0-.81.29-1.26.59-1.26s.59.45.59,1.26-.29,1.27-.59,1.27-.59-.45-.59-1.27Z"/><path class="cls-2" d="m166.34,127.28c0-4.46.87-6.92,2.36-6.92s2.36,2.46,2.36,6.92-.87,7.01-2.36,7.01-2.36-2.59-2.36-7.01Zm4.25,0c0-4.07-.76-6.11-1.89-6.11s-1.89,2.04-1.89,6.11.76,6.2,1.89,6.2,1.89-2.12,1.89-6.2Zm-2.47-.19c0-.81.29-1.26.59-1.26s.59.45.59,1.26-.29,1.27-.59,1.27-.59-.45-.59-1.27Z"/><path class="cls-2" d="m173.08,133.21h2.06v-11.11h-1.55v-.64c.74-.18,1.27-.48,1.66-.85h.36v12.6h1.93v.82h-4.46v-.82Z"/><path class="cls-2" d="m179.53,133.21h2.06v-11.11h-1.55v-.64c.74-.18,1.27-.48,1.66-.85h.36v12.6h1.93v.82h-4.46v-.82Z"/><path class="cls-2" d="m185.98,133.21h2.06v-11.11h-1.55v-.64c.74-.18,1.27-.48,1.66-.85h.36v12.6h1.93v.82h-4.46v-.82Z"/><path class="cls-2" d="m192.14,127.28c0-4.46.87-6.92,2.36-6.92s2.36,2.46,2.36,6.92-.87,7.01-2.36,7.01-2.36-2.59-2.36-7.01Zm4.25,0c0-4.07-.76-6.11-1.89-6.11s-1.89,2.04-1.89,6.11.76,6.2,1.89,6.2,1.89-2.12,1.89-6.2Zm-2.47-.19c0-.81.29-1.26.59-1.26s.59.45.59,1.26-.29,1.27-.59,1.27-.59-.45-.59-1.27Z"/><path class="cls-2" d="m205.04,127.28c0-4.46.87-6.92,2.36-6.92s2.36,2.46,2.36,6.92-.87,7.01-2.36,7.01-2.36-2.59-2.36-7.01Zm4.25,0c0-4.07-.76-6.11-1.89-6.11s-1.89,2.04-1.89,6.11.76,6.2,1.89,6.2,1.89-2.12,1.89-6.2Zm-2.47-.19c0-.81.29-1.26.59-1.26s.59.45.59,1.26-.29,1.27-.59,1.27-.59-.45-.59-1.27Z"/><path class="cls-2" d="m211.79,133.21h2.06v-11.11h-1.55v-.64c.74-.18,1.27-.48,1.66-.85h.36v12.6h1.93v.82h-4.46v-.82Z"/><path class="cls-2" d="m217.94,127.28c0-4.46.87-6.92,2.36-6.92s2.36,2.46,2.36,6.92-.87,7.01-2.36,7.01-2.36-2.59-2.36-7.01Zm4.25,0c0-4.07-.76-6.11-1.89-6.11s-1.89,2.04-1.89,6.11.76,6.2,1.89,6.2,1.89-2.12,1.89-6.2Zm-2.47-.19c0-.81.29-1.26.59-1.26s.59.45.59,1.26-.29,1.27-.59,1.27-.59-.45-.59-1.27Z"/><path class="cls-2" d="m224.69,133.21h2.06v-11.11h-1.55v-.64c.74-.18,1.27-.48,1.66-.85h.36v12.6h1.93v.82h-4.46v-.82Z"/><path class="cls-2" d="m230.84,127.28c0-4.46.87-6.92,2.36-6.92s2.36,2.46,2.36,6.92-.87,7.01-2.36,7.01-2.36-2.59-2.36-7.01Zm4.25,0c0-4.07-.76-6.11-1.89-6.11s-1.89,2.04-1.89,6.11.76,6.2,1.89,6.2,1.89-2.12,1.89-6.2Zm-2.47-.19c0-.81.29-1.26.59-1.26s.59.45.59,1.26-.29,1.27-.59,1.27-.59-.45-.59-1.27Z"/><path class="cls-2" d="m237.29,127.28c0-4.46.87-6.92,2.36-6.92s2.36,2.46,2.36,6.92-.87,7.01-2.36,7.01-2.36-2.59-2.36-7.01Zm4.25,0c0-4.07-.76-6.11-1.89-6.11s-1.89,2.04-1.89,6.11.76,6.2,1.89,6.2,1.89-2.12,1.89-6.2Zm-2.47-.19c0-.81.29-1.26.59-1.26s.59.45.59,1.26-.29,1.27-.59,1.27-.59-.45-.59-1.27Z"/><path class="cls-2" d="m244.04,133.21h2.06v-11.11h-1.55v-.64c.74-.18,1.27-.48,1.66-.85h.36v12.6h1.93v.82h-4.46v-.82Z"/><path class="cls-2" d="m250.49,133.21h2.06v-11.11h-1.55v-.64c.74-.18,1.27-.48,1.66-.85h.36v12.6h1.93v.82h-4.46v-.82Z"/><path class="cls-2" d="m263.1,127.28c0-4.46.87-6.92,2.36-6.92s2.36,2.46,2.36,6.92-.87,7.01-2.36,7.01-2.36-2.59-2.36-7.01Zm4.25,0c0-4.07-.76-6.11-1.89-6.11s-1.89,2.04-1.89,6.11.76,6.2,1.89,6.2,1.89-2.12,1.89-6.2Zm-2.47-.19c0-.81.29-1.26.59-1.26s.59.45.59,1.26-.29,1.27-.59,1.27-.59-.45-.59-1.27Z"/><path class="cls-2" d="m269.84,133.21h2.06v-11.11h-1.55v-.64c.74-.18,1.27-.48,1.66-.85h.36v12.6h1.93v.82h-4.46v-.82Z"/><path class="cls-2" d="m276,127.28c0-4.46.87-6.92,2.36-6.92s2.36,2.46,2.36,6.92-.87,7.01-2.36,7.01-2.36-2.59-2.36-7.01Zm4.25,0c0-4.07-.76-6.11-1.89-6.11s-1.89,2.04-1.89,6.11.76,6.2,1.89,6.2,1.89-2.12,1.89-6.2Zm-2.47-.19c0-.81.29-1.26.59-1.26s.59.45.59,1.26-.29,1.27-.59,1.27-.59-.45-.59-1.27Z"/><path class="cls-2" d="m282.45,127.28c0-4.46.87-6.92,2.36-6.92s2.36,2.46,2.36,6.92-.87,7.01-2.36,7.01-2.36-2.59-2.36-7.01Zm4.25,0c0-4.07-.76-6.11-1.89-6.11s-1.89,2.04-1.89,6.11.76,6.2,1.89,6.2,1.89-2.12,1.89-6.2Zm-2.47-.19c0-.81.29-1.26.59-1.26s.59.45.59,1.26-.29,1.27-.59,1.27-.59-.45-.59-1.27Z"/><path class="cls-2" d="m289.19,133.21h2.06v-11.11h-1.55v-.64c.74-.18,1.27-.48,1.66-.85h.36v12.6h1.93v.82h-4.46v-.82Z"/><path class="cls-2" d="m295.35,127.28c0-4.46.87-6.92,2.36-6.92s2.36,2.46,2.36,6.92-.87,7.01-2.36,7.01-2.36-2.59-2.36-7.01Zm4.25,0c0-4.07-.76-6.11-1.89-6.11s-1.89,2.04-1.89,6.11.76,6.2,1.89,6.2,1.89-2.12,1.89-6.2Zm-2.47-.19c0-.81.29-1.26.59-1.26s.59.45.59,1.26-.29,1.27-.59,1.27-.59-.45-.59-1.27Z"/><path class="cls-2" d="m301.8,127.28c0-4.46.87-6.92,2.36-6.92s2.36,2.46,2.36,6.92-.87,7.01-2.36,7.01-2.36-2.59-2.36-7.01Zm4.25,0c0-4.07-.76-6.11-1.89-6.11s-1.89,2.04-1.89,6.11.76,6.2,1.89,6.2,1.89-2.12,1.89-6.2Zm-2.47-.19c0-.81.29-1.26.59-1.26s.59.45.59,1.26-.29,1.27-.59,1.27-.59-.45-.59-1.27Z"/><path class="cls-2" d="m308.25,127.28c0-4.46.87-6.92,2.36-6.92s2.36,2.46,2.36,6.92-.87,7.01-2.36,7.01-2.36-2.59-2.36-7.01Zm4.25,0c0-4.07-.76-6.11-1.89-6.11s-1.88,2.04-1.88,6.11.76,6.2,1.88,6.2,1.89-2.12,1.89-6.2Zm-2.47-.19c0-.81.29-1.26.59-1.26s.59.45.59,1.26-.29,1.27-.59,1.27-.59-.45-.59-1.27Z"/><path class="cls-2" d="m321.15,127.28c0-4.46.87-6.92,2.36-6.92s2.36,2.46,2.36,6.92-.87,7.01-2.36,7.01-2.36-2.59-2.36-7.01Zm4.25,0c0-4.07-.76-6.11-1.89-6.11s-1.89,2.04-1.89,6.11.76,6.2,1.89,6.2,1.89-2.12,1.89-6.2Zm-2.47-.19c0-.81.29-1.26.59-1.26s.59.45.59,1.26-.29,1.27-.59,1.27-.59-.45-.59-1.27Z"/><path class="cls-2" d="m327.9,133.21h2.06v-11.11h-1.55v-.64c.74-.18,1.27-.48,1.66-.85h.36v12.6h1.93v.82h-4.46v-.82Z"/><path class="cls-2" d="m334.05,127.28c0-4.46.87-6.92,2.36-6.92s2.36,2.46,2.36,6.92-.87,7.01-2.36,7.01-2.36-2.59-2.36-7.01Zm4.25,0c0-4.07-.76-6.11-1.89-6.11s-1.88,2.04-1.88,6.11.76,6.2,1.88,6.2,1.89-2.12,1.89-6.2Zm-2.47-.19c0-.81.29-1.26.59-1.26s.59.45.59,1.26-.29,1.27-.59,1.27-.59-.45-.59-1.27Z"/><path class="cls-2" d="m340.5,127.28c0-4.46.87-6.92,2.36-6.92s2.36,2.46,2.36,6.92-.87,7.01-2.36,7.01-2.36-2.59-2.36-7.01Zm4.25,0c0-4.07-.76-6.11-1.89-6.11s-1.89,2.04-1.89,6.11.76,6.2,1.89,6.2,1.89-2.12,1.89-6.2Zm-2.47-.19c0-.81.29-1.26.59-1.26s.59.45.59,1.26-.29,1.27-.59,1.27-.59-.45-.59-1.27Z"/><path class="cls-2" d="m347.25,133.21h2.06v-11.11h-1.55v-.64c.74-.18,1.27-.48,1.66-.85h.36v12.6h1.93v.82h-4.46v-.82Z"/><path class="cls-2" d="m353.4,127.28c0-4.46.87-6.92,2.36-6.92s2.36,2.46,2.36,6.92-.87,7.01-2.36,7.01-2.36-2.59-2.36-7.01Zm4.25,0c0-4.07-.76-6.11-1.89-6.11s-1.88,2.04-1.88,6.11.76,6.2,1.88,6.2,1.89-2.12,1.89-6.2Zm-2.47-.19c0-.81.29-1.26.59-1.26s.59.45.59,1.26-.29,1.27-.59,1.27-.59-.45-.59-1.27Z"/><path class="cls-2" d="m359.85,127.28c0-4.46.87-6.92,2.36-6.92s2.36,2.46,2.36,6.92-.87,7.01-2.36,7.01-2.36-2.59-2.36-7.01Zm4.25,0c0-4.07-.76-6.11-1.89-6.11s-1.89,2.04-1.89,6.11.76,6.2,1.89,6.2,1.89-2.12,1.89-6.2Zm-2.47-.19c0-.81.29-1.26.59-1.26s.59.45.59,1.26-.29,1.27-.59,1.27-.59-.45-.59-1.27Z"/><path class="cls-2" d="m366.6,133.21h2.06v-11.11h-1.55v-.64c.74-.18,1.27-.48,1.66-.85h.36v12.6h1.93v.82h-4.46v-.82Z"/></g><text id="CYBER_MUNSHI" class="cls-4" transform="translate(0 408.27)"><tspan class="cls-1" x="0" y="0">C</tspan><tspan x="45.14" y="0">YBER MUNSHI</tspan></text></g></svg>